<?xml version="1.0" encoding="utf-8"?>
<!-- Svg Vector Icons : http://www.onlinewebfonts.com/icon -->
<!DOCTYPE svg PUBLIC "-//W3C//DTD SVG 1.1//EN" "http://www.w3.org/Graphics/SVG/1.1/DTD/svg11.dtd">
<svg version="1.1" xmlns="http://www.w3.org/2000/svg" xmlns:xlink="http://www.w3.org/1999/xlink" x="0px" y="0px" viewBox="0 0 1000 1000" enable-background="new 0 0 1000 1000" xml:space="preserve">
<metadata> Svg Vector Icons : http://www.onlinewebfonts.com/icon </metadata>
<g><path d="M500,10C229.4,10,10,229.4,10,500c0,270.6,219.4,490,490,490c270.6,0,490-219.4,490-490C990,229.4,770.6,10,500,10z M328.1,571.8c-16.3,16.3-35.8,24.5-58.3,24.5c-21.7,0-40.6-8.2-56.4-24.5c-15.9-16.3-23.8-35.7-23.8-58.3c0-21.7,8-40.5,23.8-56.4c15.9-16,34.7-23.8,56.4-23.8c22.6,0,42,7.9,58.3,23.8c16.3,15.9,24.4,34.7,24.4,56.4C352.5,536,344.4,555.4,328.1,571.8z M569.5,571.8c-16.7,16.3-35.5,24.5-56.4,24.5c-21.7,0-41-8.2-57.7-24.5c-16.7-16.3-25.1-35.7-25.1-58.3c0-21.7,8.4-40.5,25.1-56.4c16.7-16,35.9-23.8,57.7-23.8c20.9,0,39.8,7.9,56.4,23.8c16.7,15.9,25,34.7,25,56.4C594.5,536,586.2,555.4,569.5,571.8z M809,571.8c-15.9,16.3-34.7,24.5-56.4,24.5c-24.2,0-44.1-8.2-59.6-24.5c-15.5-16.3-23.2-35.7-23.2-58.3c0-21.7,7.7-40.5,23.2-56.4c15.5-16,35.3-23.8,59.6-23.8c21.7,0,40.5,7.9,56.4,23.8c15.9,15.9,23.8,34.7,23.8,56.4C832.8,536,824.8,555.4,809,571.8z"/></g>
</svg>